<?xml version="1.0" encoding="UTF-8" standalone="no"?>
<svg width="40px" height="40px" viewBox="0 0 40 40" version="1.1" xmlns="http://www.w3.org/2000/svg" xmlns:xlink="http://www.w3.org/1999/xlink" xmlns:sketch="http://www.bohemiancoding.com/sketch/ns">
    <!-- Generator: Sketch 3.5.1 (25234) - http://www.bohemiancoding.com/sketch -->
    <title>Basket</title>
    <desc>Created with Sketch.</desc>
    <defs></defs>
    <g id="Page-1" stroke="none" stroke-width="1" fill="none" fill-rule="evenodd" sketch:type="MSPage">
        <g id="Not-Joined" sketch:type="MSArtboardGroup" transform="translate(-913.000000, -207.000000)" fill="#808080">
            <g id="Showcase" sketch:type="MSLayerGroup" transform="translate(0.000000, 160.000000)">
                <g id="Key-Stats" transform="translate(614.000000, 47.000000)" sketch:type="MSShapeGroup">
                    <path d="M309.024388,13.6722634 C309.233562,13.6722634 309.439921,13.5794016 309.578745,13.4030579 L317.536723,3.24922615 L320.562705,3.24922615 L328.242097,13.3936779 C328.379983,13.5756496 328.591033,13.6722634 328.80302,13.6722634 C328.951224,13.6722634 329.100366,13.6253635 329.227934,13.5287496 C329.537473,13.2942501 329.598443,12.8543289 329.363943,12.5438514 L322.18169,3.0559985 C322.698527,2.78397899 323.054967,2.24744395 323.054967,1.62461308 C323.054967,0.728824688 322.326142,0 321.430354,0 L316.397055,0 C315.501266,0 314.772442,0.728824688 314.772442,1.62461308 C314.772442,2.32060782 315.215177,2.91154676 315.83238,3.14229434 L308.471907,12.5344714 C308.231779,12.8402589 308.285245,13.2829941 308.591033,13.5221837 C308.720477,13.6234875 308.872432,13.6722634 309.024388,13.6722634 L309.024388,13.6722634 Z M316.397055,1.40699747 L321.430354,1.40699747 C321.552293,1.40699747 321.647969,1.5026733 321.647969,1.62461308 C321.647969,1.74467686 321.550417,1.84222868 321.430354,1.84222868 L316.397055,1.84222868 C316.276991,1.84222868 316.179439,1.74467686 316.179439,1.62461308 C316.179439,1.5026733 316.275115,1.40699747 316.397055,1.40699747 L316.397055,1.40699747 Z M338.125786,14.9713911 L299.703499,14.9713911 C299.315167,14.9713911 299,15.2856205 299,15.6748898 C299,16.0632211 299.315167,16.3783885 299.703499,16.3783885 L302.009099,16.3783885 L303.290404,39.3358972 C303.31104,39.7092205 303.619642,40 303.992965,40 L333.837257,40 C334.211519,40 334.519182,39.7092205 334.539818,39.3358972 L335.821124,16.3783885 L338.125786,16.3783885 C338.514117,16.3783885 338.829284,16.0632211 338.829284,15.6748898 C338.829284,15.2856205 338.514117,14.9713911 338.125786,14.9713911 L338.125786,14.9713911 Z M310.912579,38.5930025 L304.658006,38.5930025 L304.288434,31.9735484 L310.912579,31.9735484 L310.912579,38.5930025 L310.912579,38.5930025 Z M310.912579,30.566551 L304.210581,30.566551 L303.853203,24.1750305 L310.912579,24.1750305 L310.912579,30.566551 L310.912579,30.566551 Z M310.912579,22.768033 L303.774411,22.768033 L303.417972,16.3783885 L310.912579,16.3783885 L310.912579,22.768033 L310.912579,22.768033 Z M312.319576,31.9735484 L318.206453,31.9735484 L318.206453,38.5930025 L312.319576,38.5930025 L312.319576,31.9735484 Z M312.319576,24.1750305 L318.206453,24.1750305 L318.206453,30.566551 L312.319576,30.566551 L312.319576,24.1750305 Z M312.319576,16.3783885 L318.206453,16.3783885 L318.206453,22.768033 L312.319576,22.768033 L312.319576,16.3783885 Z M319.613451,31.9735484 L325.510646,31.9735484 L325.510646,38.5930025 L319.613451,38.5930025 L319.613451,31.9735484 Z M319.613451,24.1750305 L325.510646,24.1750305 L325.510646,30.566551 L319.613451,30.566551 L319.613451,24.1750305 Z M319.613451,16.3783885 L325.510646,16.3783885 L325.510646,22.768033 L319.613451,22.768033 L319.613451,16.3783885 Z M333.171278,38.5930025 L326.917644,38.5930025 L326.917644,31.9735484 L333.541788,31.9735484 L333.171278,38.5930025 L333.171278,38.5930025 Z M333.62058,30.566551 L326.917644,30.566551 L326.917644,24.1750305 L333.977019,24.1750305 L333.62058,30.566551 L333.62058,30.566551 Z M334.055811,22.768033 L326.917644,22.768033 L326.917644,16.3783885 L334.411312,16.3783885 L334.055811,22.768033 L334.055811,22.768033 Z" id="Basket"></path>
                </g>
            </g>
        </g>
    </g>
</svg>