<?xml version="1.0" encoding="UTF-8" standalone="no"?>
<svg width="35px" height="40px" viewBox="0 0 35 40" version="1.1" xmlns="http://www.w3.org/2000/svg" xmlns:xlink="http://www.w3.org/1999/xlink" xmlns:sketch="http://www.bohemiancoding.com/sketch/ns">
    <!-- Generator: Sketch 3.5.1 (25234) - http://www.bohemiancoding.com/sketch -->
    <title>Cal</title>
    <desc>Created with Sketch.</desc>
    <defs></defs>
    <g id="Page-1" stroke="none" stroke-width="1" fill="none" fill-rule="evenodd" sketch:type="MSPage">
        <g id="Joined" sketch:type="MSArtboardGroup" transform="translate(-650.000000, -204.000000)" fill="#808080">
            <g id="Showcase" sketch:type="MSLayerGroup" transform="translate(0.000000, 157.000000)">
                <g id="Key-Stats" transform="translate(614.000000, 47.000000)" sketch:type="MSShapeGroup">
                    <path d="M68.2759268,2.55748475 L63.8291882,2.55748475 L63.8291882,0.703894885 C63.8291882,0.315344908 63.5138433,0 63.1252933,0 C62.7367433,0 62.4213984,0.315344908 62.4213984,0.703894885 L62.4213984,2.55748475 L53.7475364,2.55748475 L53.7475364,0.703894885 C53.7475364,0.315344908 53.4321915,0 53.0436415,0 C52.6550915,0 52.3397466,0.315344908 52.3397466,0.703894885 L52.3397466,2.55748475 L43.663069,2.55748475 L43.663069,0.703894885 C43.663069,0.315344908 43.3486626,0 42.9601126,0 C42.5715626,0 42.2562177,0.315344908 42.2562177,0.703894885 L42.2562177,2.55748475 L37.8066635,2.55748475 C36.8108869,2.55748475 36,3.36931018 36,4.36602534 L36,38.2449554 C36.0290943,39.2294697 36.8230878,40 37.8066635,40 L68.2759268,40 C69.2454247,40 70.0563116,39.2116377 70.0835289,38.2233693 L70.0854059,4.36602534 C70.0854059,3.36931018 69.2735805,2.55748475 68.2759268,2.55748475 L68.2759268,2.55748475 Z M63.1252933,7.5326138 C63.2735805,7.5326138 63.4059127,7.47536368 63.5194744,7.39558893 C63.4181136,7.49601126 63.2810887,7.55983107 63.1290474,7.55983107 C63.0276865,7.55983107 62.937588,7.52510558 62.8559362,7.47817926 C62.9404036,7.51196621 63.0295636,7.5326138 63.1252933,7.5326138 L63.1252933,7.5326138 Z M53.0436415,7.5326138 C53.1403097,7.5326138 53.2322853,7.51290474 53.3176912,7.47724073 C53.2351009,7.52510558 53.1459409,7.55983107 53.0455185,7.55983107 C52.9422806,7.55983107 52.8531206,7.52510558 52.7705303,7.47724073 C52.8559362,7.51290474 52.9460347,7.5326138 53.0436415,7.5326138 L53.0436415,7.5326138 Z M42.9601126,7.5326138 C43.0567809,7.5326138 43.149695,7.51290474 43.2332238,7.47724073 C43.1525106,7.52510558 43.062412,7.55983107 42.9619897,7.55983107 C42.8606288,7.55983107 42.7705303,7.52510558 42.6888785,7.47817926 C42.7724073,7.51290474 42.8625059,7.5326138 42.9601126,7.5326138 L42.9601126,7.5326138 Z M68.6757391,38.2036603 C68.6701079,38.4185828 68.4908494,38.5922102 68.2759268,38.5922102 L37.8066635,38.5922102 C37.593618,38.5922102 37.4124824,38.4176443 37.4077898,38.2233693 L37.4077898,4.36602534 C37.4077898,4.14547161 37.5870483,3.96527452 37.8066635,3.96527452 L42.2562177,3.96527452 L42.2562177,5.18066635 C41.520413,5.46410136 40.9985922,6.17268888 40.9985922,7.0051619 C40.9985922,8.08728297 41.8779916,8.96762084 42.9619897,8.96762084 C44.0412952,8.96762084 44.9206945,8.08728297 44.9206945,7.0051619 C44.9206945,6.17175035 44.3969967,5.46222431 43.663069,5.17972783 L43.663069,3.96527452 L52.3397466,3.96527452 L52.3397466,5.17972783 C51.6048803,5.46316283 51.080244,6.17175035 51.080244,7.0051619 C51.080244,8.08728297 51.9615204,8.96762084 53.0455185,8.96762084 C54.124824,8.96762084 55.0051619,8.08728297 55.0051619,7.0051619 C55.0051619,6.17175035 54.4805256,5.46222431 53.7475364,5.17972783 L53.7475364,3.96527452 L62.4213984,3.96527452 L62.4213984,5.18066635 C61.6884092,5.46503989 61.1656499,6.17268888 61.1656499,7.0051619 C61.1656499,8.08728297 62.0459878,8.96762084 63.1290474,8.96762084 C64.2083529,8.96762084 65.0877522,8.08728297 65.0877522,7.0051619 C65.0877522,6.17081183 64.5621774,5.46128578 63.8291882,5.1787893 L63.8291882,3.96527452 L68.2759268,3.96527452 C68.4983576,3.96527452 68.6776161,4.14547161 68.6776161,4.36602534 L68.6757391,38.2036603 L68.6757391,38.2036603 Z M64.2787424,11.5410605 L41.8029094,11.5410605 C40.8061943,11.5410605 39.9953074,12.352886 39.9953074,13.3514782 L39.9953074,33.7991553 C40.0300328,34.7827311 40.8221492,35.5523229 41.8029094,35.5523229 L64.2787424,35.5523229 C65.2632567,35.5523229 66.0563116,34.7817926 66.087283,33.7756922 L66.087283,13.3514782 C66.087283,12.352886 65.2754575,11.5410605 64.2787424,11.5410605 L64.2787424,11.5410605 Z M64.6794932,33.7541061 C64.671985,33.9699672 64.4936649,34.1445331 64.2787424,34.1445331 L41.8029094,34.1445331 C41.5861098,34.1445331 41.4096668,33.9718442 41.4030971,33.7756922 L41.4030971,13.3514782 C41.4030971,13.1290474 41.5823557,12.9488503 41.8029094,12.9488503 L64.2787424,12.9488503 C64.5002346,12.9488503 64.6794932,13.1290474 64.6794932,13.3514782 L64.6794932,33.7541061 L64.6794932,33.7541061 Z" id="Cal"></path>
                </g>
            </g>
        </g>
    </g>
</svg>