<?xml version="1.0" encoding="UTF-8" standalone="no"?>
<svg width="35px" height="40px" viewBox="0 0 35 40" version="1.1" xmlns="http://www.w3.org/2000/svg" xmlns:xlink="http://www.w3.org/1999/xlink" xmlns:sketch="http://www.bohemiancoding.com/sketch/ns">
    <!-- Generator: Sketch 3.5.1 (25234) - http://www.bohemiancoding.com/sketch -->
    <title>Cal</title>
    <desc>Created with Sketch.</desc>
    <defs></defs>
    <g id="Page-1" stroke="none" stroke-width="1" fill="none" fill-rule="evenodd" sketch:type="MSPage">
        <g id="Not-Joined" sketch:type="MSArtboardGroup" transform="translate(-650.000000, -207.000000)" fill="#808080">
            <g id="Showcase" sketch:type="MSLayerGroup" transform="translate(0.000000, 160.000000)">
                <g id="Key-Stats" transform="translate(614.000000, 47.000000)" sketch:type="MSShapeGroup">
                    <path d="M68.2759268,2.55748475 L63.8291882,2.55748475 L63.8291882,0.703894885 C63.8291882,0.315344908 63.5138433,0 63.1252933,0 C62.7367433,0 62.4213984,0.315344908 62.4213984,0.703894885 L62.4213984,2.55748475 L53.7475364,2.55748475 L53.7475364,0.703894885 C53.7475364,0.315344908 53.4321915,0 53.0436415,0 C52.6550915,0 52.3397466,0.315344908 52.3397466,0.703894885 L52.3397466,2.55748475 L43.663069,2.55748475 L43.663069,0.703894885 C43.663069,0.315344908 43.3486626,0 42.9601126,0 C42.5715626,0 42.2562177,0.315344908 42.2562177,0.703894885 L42.2562177,2.55748475 L37.8066635,2.55748475 C36.8108869,2.55748475 36,3.36931018 36,4.36602534 L36,38.2449554 C36.0290943,39.2294697 36.8230878,40 37.8066635,40 L68.2759268,40 C69.2454247,40 70.0563116,39.2116377 70.0835289,38.2233693 L70.0854059,4.36602534 C70.0854059,3.36931018 69.2735805,2.55748475 68.2759268,2.55748475 L68.2759268,2.55748475 Z M63.1252933,7.5326138 C63.2735805,7.5326138 63.4059127,7.47536368 63.5194744,7.39558893 C63.4181136,7.49601126 63.2810887,7.55983107 63.1290474,7.55983107 C63.0276865,7.55983107 62.937588,7.52510558 62.8559362,7.47817926 C62.9404036,7.51196621 63.0295636,7.5326138 63.1252933,7.5326138 L63.1252933,7.5326138 Z M53.0436415,7.5326138 C53.1403097,7.5326138 53.2322853,7.51290474 53.3176912,7.47724073 C53.2351009,7.52510558 53.1459409,7.55983107 53.0455185,7.55983107 C52.9422806,7.55983107 52.8531206,7.52510558 52.7705303,7.47724073 C52.8559362,7.51290474 52.9460347,7.5326138 53.0436415,7.5326138 L53.0436415,7.5326138 Z M42.9601126,7.5326138 C43.0567809,7.5326138 43.149695,7.51290474 43.2332238,7.47724073 C43.1525106,7.52510558 43.062412,7.55983107 42.9619897,7.55983107 C42.8606288,7.55983107 42.7705303,7.52510558 42.6888785,7.47817926 C42.7724073,7.51290474 42.8625059,7.5326138 42.9601126,7.5326138 L42.9601126,7.5326138 Z M68.6757391,38.2036603 C68.6701079,38.4185828 68.4908494,38.5922102 68.2759268,38.5922102 L37.8066635,38.5922102 C37.593618,38.5922102 37.4124824,38.4176443 37.4077898,38.2233693 L37.4077898,4.36602534 C37.4077898,4.14547161 37.5870483,3.96527452 37.8066635,3.96527452 L42.2562177,3.96527452 L42.2562177,5.18066635 C41.520413,5.46410136 40.9985922,6.17268888 40.9985922,7.0051619 C40.9985922,8.08728297 41.8779916,8.96762084 42.9619897,8.96762084 C44.0412952,8.96762084 44.9206945,8.08728297 44.9206945,7.0051619 C44.9206945,6.17175035 44.3969967,5.46222431 43.663069,5.17972783 L43.663069,3.96527452 L52.3397466,3.96527452 L52.3397466,5.17972783 C51.6048803,5.46316283 51.080244,6.17175035 51.080244,7.0051619 C51.080244,8.08728297 51.9615204,8.96762084 53.0455185,8.96762084 C54.124824,8.96762084 55.0051619,8.08728297 55.0051619,7.0051619 C55.0051619,6.17175035 54.4805256,5.46222431 53.7475364,5.17972783 L53.7475364,3.96527452 L62.4213984,3.96527452 L62.4213984,5.18066635 C61.6884092,5.46503989 61.1656499,6.17268888 61.1656499,7.0051619 C61.1656499,8.08728297 62.0459878,8.96762084 63.1290474,8.96762084 C64.2083529,8.96762084 65.0877522,8.08728297 65.0877522,7.0051619 C65.0877522,6.17081183 64.5621774,5.46128578 63.8291882,5.1787893 L63.8291882,3.96527452 L68.2759268,3.96527452 C68.4983576,3.96527452 68.6776161,4.14547161 68.6776161,4.36602534 L68.6757391,38.2036603 L68.6757391,38.2036603 Z M64.2787424,11.5410605 L41.8029094,11.5410605 C40.8061943,11.5410605 39.9953074,12.352886 39.9953074,13.3514782 L39.9953074,33.7991553 C40.0300328,34.7827311 40.8221492,35.5523229 41.8029094,35.5523229 L64.2787424,35.5523229 C65.2632567,35.5523229 66.0563116,34.7817926 66.087283,33.7756922 L66.087283,13.3514782 C66.087283,12.352886 65.2754575,11.5410605 64.2787424,11.5410605 L64.2787424,11.5410605 Z M64.6794932,33.7541061 C64.671985,33.9699672 64.4936649,34.1445331 64.2787424,34.1445331 L41.8029094,34.1445331 C41.5861098,34.1445331 41.4096668,33.9718442 41.4030971,33.7756922 L41.4030971,13.3514782 C41.4030971,13.1290474 41.5823557,12.9488503 41.8029094,12.9488503 L64.2787424,12.9488503 C64.5002346,12.9488503 64.6794932,13.1290474 64.6794932,13.3514782 L64.6794932,33.7541061 L64.6794932,33.7541061 Z M57.1459409,23.9436884 C56.9422806,23.6968559 56.7038949,23.4800563 56.4345378,23.2942281 C56.6091037,23.1581417 56.7686532,23.0051619 56.9150634,22.8362271 C57.185359,22.5199437 57.3946504,22.1539183 57.5410605,21.7437823 C57.6790239,21.345847 57.7503519,20.9150634 57.7503519,20.4645706 C57.7503519,19.7907086 57.6039418,19.1928672 57.3139371,18.6851244 C57.0323792,18.1970906 56.6597841,17.7916471 56.2092914,17.4819334 C55.7728766,17.1825434 55.2707649,16.9591741 54.7170343,16.8193336 C53.520413,16.5161896 52.1801971,16.5462224 51.1384327,16.9788832 C50.5593618,17.2200845 50.0553731,17.5598311 49.6433599,17.9868606 C49.2229,18.4213984 48.8991084,18.9460347 48.6832473,19.5448146 C48.4702018,20.1285781 48.3613327,20.7780385 48.3613327,21.4753637 C48.3613327,21.8639137 48.6766776,22.1792586 49.0652276,22.1792586 L49.7512905,22.1792586 C50.1267011,22.1792586 50.4364148,21.8836227 50.4533083,21.5072736 C50.4748944,21.0577194 50.5480995,20.6410136 50.6691694,20.2749883 C50.7874237,19.9202252 50.9469733,19.6302206 51.1581417,19.3890192 C51.361802,19.1543876 51.6133271,18.9723135 51.930549,18.832473 C52.4748944,18.5912717 53.2285312,18.5405913 54.0422337,18.7517597 C54.3594557,18.8343501 54.6513374,18.9601126 54.9047396,19.1224777 C55.1365556,19.272642 55.3195683,19.4594087 55.4603473,19.6931018 C55.593618,19.9089629 55.6574378,20.1614266 55.6574378,20.4645706 C55.6574378,20.8596903 55.5776631,21.1769122 55.4209291,21.4106053 C55.2538714,21.6611919 55.0398874,21.8545284 54.7648991,22.0009385 C54.4655092,22.1595495 54.1210699,22.2684186 53.7400282,22.3228531 C53.3251994,22.3819803 52.9056781,22.4016893 52.4936649,22.3801032 C52.301267,22.3735336 52.1135617,22.4401689 51.9727827,22.5734397 C51.8338808,22.7057719 51.7550446,22.8906617 51.7550446,23.0830596 L51.7550446,23.6799625 C51.7550446,23.875176 51.8357579,24.0619427 51.9784139,24.194275 C52.1210699,24.3275458 52.3237916,24.3998123 52.5058658,24.3819803 C52.9741905,24.3500704 53.4321915,24.3660253 53.8845612,24.4317222 C54.3050211,24.4917879 54.6672924,24.6072267 54.9957766,24.7864852 C55.2829657,24.9422806 55.5091506,25.1600188 55.6865321,25.4472079 C55.859221,25.7278273 55.946504,26.0994838 55.946504,26.5518536 C55.946504,26.9328954 55.8742374,27.2595026 55.7250117,27.5485687 C55.5748475,27.8404505 55.3730643,28.087283 55.1224777,28.2824965 C54.8578132,28.4889723 54.5574847,28.6419521 54.1999061,28.7508212 C53.3937119,28.9995307 52.4476771,28.9591741 51.7691225,28.7010793 C51.4115439,28.56687 51.1074613,28.3735336 50.8653214,28.124824 C50.6241201,27.8808071 50.4458001,27.5832942 50.3162834,27.2097607 C50.1839512,26.8381042 50.1267011,26.4007508 50.1473487,25.9117785 C50.1567339,25.7203191 50.0844674,25.5344908 49.9530737,25.3965275 C49.8198029,25.2576255 49.6367902,25.1797278 49.4453308,25.1797278 L48.7573909,25.1797278 C48.3838573,25.1797278 48.0760206,25.4716096 48.053496,25.8442046 C48.0112623,26.6241201 48.0994838,27.3374003 48.3162834,27.9680901 C48.5387142,28.602534 48.8822149,29.149695 49.3402159,29.593618 C49.7935242,30.0309714 50.3481933,30.3679024 50.9901455,30.5940873 C51.6123885,30.8108869 52.3115908,30.921633 53.0727358,30.921633 C53.7128109,30.921633 54.3322384,30.8362271 54.9131863,30.6672924 C55.5185359,30.4917879 56.0572501,30.2186767 56.5077428,29.857344 C56.975129,29.4847489 57.3496011,29.0183013 57.6208353,28.4739559 C57.8977006,27.9221023 58.0375411,27.2754575 58.0375411,26.5518536 C58.0375411,26.0525575 57.9615204,25.5776631 57.8104176,25.1393712 C57.6593149,24.6982637 57.435007,24.2965744 57.1459409,23.9436884 L57.1459409,23.9436884 Z" id="Cal"></path>
                </g>
            </g>
        </g>
    </g>
</svg>