<?xml version="1.0" encoding="UTF-8" standalone="no"?>
<svg width="26px" height="27px" viewBox="0 0 26 27" version="1.1" xmlns="http://www.w3.org/2000/svg" xmlns:xlink="http://www.w3.org/1999/xlink" xmlns:sketch="http://www.bohemiancoding.com/sketch/ns">
    <!-- Generator: Sketch 3.5.1 (25234) - http://www.bohemiancoding.com/sketch -->
    <title>Icon. Vote</title>
    <desc>Created with Sketch.</desc>
    <defs></defs>
    <g id="Page-1" stroke="none" stroke-width="1" fill="none" fill-rule="evenodd" sketch:type="MSPage">
        <g id="Not-Joined" sketch:type="MSArtboardGroup" transform="translate(-60.000000, -1480.000000)" stroke="#FFFFFF" fill="#CECED2">
            <g id="Voting" sketch:type="MSLayerGroup" transform="translate(0.000000, 1052.000000)">
                <g id="-03:-Voting-Topic-Expanded" transform="translate(42.000000, 390.000000)" sketch:type="MSShapeGroup">
                    <g id="Top-Info" transform="translate(0.000000, 21.000000)">
                        <path d="M33.3908785,24.2374747 C32.8388677,24.2374747 32.3890811,24.6872613 32.3890811,25.2398562 C32.3890811,25.7924511 32.8388677,26.2416536 33.3908785,26.2416536 C33.9434734,26.2416536 34.3932599,25.7924511 34.3932599,25.2398562 C34.3932599,24.6872613 33.9434734,24.2374747 33.3908785,24.2374747 L33.3908785,24.2374747 Z M33.2652887,25.2398562 C33.2652887,25.1703437 33.3219501,25.1136823 33.3908785,25.1136823 C33.4603909,25.1136823 33.5170523,25.1703437 33.5170523,25.2398562 C33.5170523,25.3788812 33.2652887,25.3800494 33.2652887,25.2398562 L33.2652887,25.2398562 Z M42.4082229,20.773534 L41.2568861,20.773534 C41.0150528,20.773534 40.8187823,20.9698045 40.8187823,21.2116378 C40.8187823,21.4534711 41.0150528,21.6497416 41.2568861,21.6497416 L42.3942035,21.6497416 C42.8031004,21.6620085 43.1237924,21.9920467 43.1237924,22.3991912 L43.1237924,35.1994159 C43.1237924,35.6077286 42.8031004,35.9377668 42.4082229,35.9500337 L39.5985172,35.9500337 C39.3566839,35.9500337 39.1604134,36.1463042 39.1604134,36.3881375 L39.1604134,41.8767019 L32.6303303,36.0662772 C32.5503033,35.9955965 32.4469108,35.9564592 32.3394293,35.9558751 L28.974208,35.9500337 C28.974208,35.9500337 28.974208,35.9500337 28.9736239,35.9500337 C28.7317906,35.9500337 28.5361042,36.1457201 28.5355201,36.3875534 C28.534936,36.6293867 28.7312065,36.8262413 28.9724556,36.8262413 L32.1723658,36.8320827 L39.3070321,43.1799146 C39.3893956,43.2523478 39.4933723,43.2909009 39.5985172,43.2909009 C39.6592676,43.2909009 39.720018,43.2780499 39.7784318,43.2517636 C39.935565,43.181667 40.036621,43.0245338 40.036621,42.8527971 L40.036621,36.8262413 L42.4216581,36.8262413 C43.3072119,36.7982027 44,36.0843855 44,35.1994159 L44,22.3991912 C44,21.5153898 43.3072119,20.8015727 42.4082229,20.773534 L42.4082229,20.773534 Z M24.6854639,24.2374747 C24.132869,24.2374747 23.6830825,24.6872613 23.6830825,25.2398562 C23.6830825,25.7924511 24.132869,26.2416536 24.6854639,26.2416536 C25.2380589,26.2416536 25.6872613,25.7924511 25.6872613,25.2398562 C25.6872613,24.6872613 25.2380589,24.2374747 24.6854639,24.2374747 L24.6854639,24.2374747 Z M24.55929,25.2398562 C24.55929,25.1703437 24.6159515,25.1136823 24.6854639,25.1136823 C24.7549764,25.1136823 24.8110537,25.1703437 24.8110537,25.2398562 C24.8110537,25.3788812 24.5598742,25.3788812 24.55929,25.2398562 L24.55929,25.2398562 Z M38.5155246,33.0538755 C39.4133453,33.0538755 40.1441024,32.3237025 40.1441024,31.4270501 L40.1441024,18.6268254 C40.1441024,17.7295889 39.4133453,17 38.5155246,17 L19.5789261,17.0011683 C18.6933723,17.0292069 18,17.7424399 18,18.6268254 L18,31.4270501 C18,32.3126039 18.6933723,33.026421 19.5923613,33.0532914 L21.9639632,33.0532914 L21.9639632,39.0798472 C21.9639632,39.2521681 22.0650191,39.4087171 22.2227365,39.4793979 C22.2805662,39.5051 22.3413166,39.517951 22.402067,39.517951 C22.5072119,39.517951 22.6111885,39.479982 22.6929679,39.4069647 L29.8282184,33.0591328 L38.5155246,33.0538755 L38.5155246,33.0538755 Z M29.3696697,32.2933273 L22.8401707,38.103752 L22.8401707,32.6151876 C22.8401707,32.3733543 22.6439002,32.1770838 22.402067,32.1770838 L19.6057965,32.1776679 C19.1963154,32.165401 18.8762076,31.8353628 18.8762076,31.4270501 L18.8762076,18.6268254 C18.8762076,18.2190968 19.1963154,17.8896428 19.5923613,17.8773759 L38.5155246,17.8762076 C38.930847,17.8762076 39.2678949,18.2126713 39.2678949,18.6268254 L39.2678949,31.4270501 C39.2678949,31.8406201 38.930847,32.1776679 38.5155246,32.1776679 L29.6605707,32.1829252 C29.5536733,32.1829252 29.4496967,32.2220625 29.3696697,32.2933273 L29.3696697,32.2933273 Z M29.0378791,24.2374747 C28.4852842,24.2374747 28.0354976,24.6872613 28.0354976,25.2398562 C28.0354976,25.7924511 28.4852842,26.2416536 29.0378791,26.2416536 C29.5893058,26.2416536 30.0379241,25.7924511 30.0379241,25.2398562 C30.0379241,24.6872613 29.5893058,24.2374747 29.0378791,24.2374747 L29.0378791,24.2374747 Z M28.9117052,25.2398562 C28.9117052,25.1703437 28.9683667,25.1136823 29.0378791,25.1136823 C29.1056392,25.1136823 29.1617165,25.1703437 29.1617165,25.2398562 C29.1617165,25.3818018 28.9111211,25.3788812 28.9117052,25.2398562 L28.9117052,25.2398562 Z" id="Icon.-Vote"></path>
                    </g>
                </g>
            </g>
        </g>
    </g>
</svg>