<?xml version="1.0" encoding="UTF-8" standalone="no"?>
<svg width="16px" height="13px" viewBox="0 0 16 13" version="1.1" xmlns="http://www.w3.org/2000/svg" xmlns:xlink="http://www.w3.org/1999/xlink" xmlns:sketch="http://www.bohemiancoding.com/sketch/ns">
    <!-- Generator: Sketch 3.5.1 (25234) - http://www.bohemiancoding.com/sketch -->
    <title>Check</title>
    <desc>Created with Sketch.</desc>
    <defs></defs>
    <g id="Page-1" stroke="none" stroke-width="1" fill="none" fill-rule="evenodd" sketch:type="MSPage">
        <g id="Not-Joined" sketch:type="MSArtboardGroup" transform="translate(-862.000000, -1369.000000)" stroke="#404040" stroke-width="2" fill="#404040">
            <g id="Voting" sketch:type="MSLayerGroup" transform="translate(0.000000, 1052.000000)">
                <g id="-02:-Voting-Topic" transform="translate(42.000000, 269.000000)" sketch:type="MSShapeGroup">
                    <path d="M834.917454,49.049185 C834.821914,48.9725752 834.682597,48.9867732 834.605691,49.0826093 L828.342623,56.8373487 C828.336411,56.8453351 828.330791,56.8533214 828.325467,56.8618994 C828.323692,56.8648573 828.321918,56.868111 828.319847,56.8716604 L826.624968,58.9865625 C826.575571,59.0471995 826.507539,59.0838776 826.433295,59.0897934 C826.35639,59.0939344 826.286583,59.0696796 826.229791,59.0185079 L821.371137,54.6011726 C821.280921,54.5192386 821.14042,54.5254502 821.057599,54.6162579 C820.975369,54.7067698 820.981876,54.8472703 821.072684,54.9295 L825.93193,59.3474269 C826.066811,59.468701 826.235412,59.5340707 826.411998,59.5340707 C826.430337,59.5340707 826.448676,59.5334791 826.467311,59.5320002 C826.664012,59.5169149 826.842078,59.4225577 826.970155,59.2651971 L828.686627,57.1233782 C828.692247,57.1156876 828.698163,57.1065181 828.703487,57.096757 L834.950878,49.3612439 C835.027784,49.2659994 835.012699,49.1263863 834.917454,49.049185" id="Check"></path>
                </g>
            </g>
        </g>
    </g>
</svg>