<?xml version="1.0" encoding="UTF-8" standalone="no"?>
<svg width="26px" height="21px" viewBox="0 0 26 21" version="1.1" xmlns="http://www.w3.org/2000/svg" xmlns:xlink="http://www.w3.org/1999/xlink" xmlns:sketch="http://www.bohemiancoding.com/sketch/ns">
    <!-- Generator: Sketch 3.5.1 (25234) - http://www.bohemiancoding.com/sketch -->
    <title>Check</title>
    <desc>Created with Sketch.</desc>
    <defs></defs>
    <g id="Page-1" stroke="none" stroke-width="1" fill="none" fill-rule="evenodd" sketch:type="MSPage">
        <g id="Joined" sketch:type="MSArtboardGroup" transform="translate(-324.000000, -670.000000)" stroke="#404040" stroke-width="2" fill="#404040">
            <g id="Showcase" sketch:type="MSLayerGroup" transform="translate(0.000000, 157.000000)">
                <path d="M348.858493,514.084317 C348.694709,513.952986 348.45588,513.977325 348.324042,514.141616 L337.587354,527.435455 C337.576705,527.449146 337.567071,527.462837 337.557944,527.477542 C337.554901,527.482612 337.551859,527.48819 337.548309,527.494275 L334.642802,531.119821 C334.558121,531.223771 334.441495,531.286647 334.314221,531.296789 C334.182383,531.303888 334.062714,531.262308 333.965357,531.174585 L325.636234,523.60201 C325.481578,523.461552 325.24072,523.4722 325.098741,523.627871 C324.957776,523.783034 324.968931,524.023892 325.124601,524.164857 L333.454738,531.738446 C333.685962,531.946345 333.974991,532.058407 334.277712,532.058407 C334.30915,532.058407 334.340588,532.057393 334.372534,532.054857 C334.709735,532.028997 335.014991,531.867242 335.234552,531.597481 L338.177075,527.925791 C338.18671,527.912607 338.196851,527.896888 338.205978,527.880155 L348.915792,514.619275 C349.04763,514.455999 349.021769,514.216662 348.858493,514.084317" id="Check" sketch:type="MSShapeGroup"></path>
            </g>
        </g>
    </g>
</svg>