<?xml version="1.0" encoding="UTF-8" standalone="no"?>
<!-- Created with Inkscape (http://www.inkscape.org/) -->

<svg
   xmlns:dc="http://purl.org/dc/elements/1.1/"
   xmlns:cc="http://creativecommons.org/ns#"
   xmlns:rdf="http://www.w3.org/1999/02/22-rdf-syntax-ns#"
   xmlns:svg="http://www.w3.org/2000/svg"
   xmlns="http://www.w3.org/2000/svg"
   xmlns:sodipodi="http://sodipodi.sourceforge.net/DTD/sodipodi-0.dtd"
   xmlns:inkscape="http://www.inkscape.org/namespaces/inkscape"
   width="13.325994mm"
   height="10.514671mm"
   viewBox="0 0 47.218091 37.256709"
   id="svg2"
   version="1.1"
   inkscape:version="0.91 r13725"
   sodipodi:docname="Handshake4.svg">
  <defs
     id="defs4" />
  <sodipodi:namedview
     id="base"
     pagecolor="#ffffff"
     bordercolor="#666666"
     borderopacity="1.0"
     inkscape:pageopacity="0.0"
     inkscape:pageshadow="2"
     inkscape:zoom="7.919596"
     inkscape:cx="17.001367"
     inkscape:cy="21.179418"
     inkscape:document-units="px"
     inkscape:current-layer="g4327"
     showgrid="false"
     inkscape:window-width="1366"
     inkscape:window-height="705"
     inkscape:window-x="1072"
     inkscape:window-y="1148"
     inkscape:window-maximized="1"
     fit-margin-top="0"
     fit-margin-left="0"
     fit-margin-right="0"
     fit-margin-bottom="0" />
  <metadata
     id="metadata7">
    <rdf:RDF>
      <cc:Work
         rdf:about="">
        <dc:format>image/svg+xml</dc:format>
        <dc:type
           rdf:resource="http://purl.org/dc/dcmitype/StillImage" />
        <dc:title></dc:title>
      </cc:Work>
    </rdf:RDF>
  </metadata>
  <g
     inkscape:label="Layer 1"
     inkscape:groupmode="layer"
     id="layer1"
     transform="translate(-475.93884,-520.9551)">
    <g
       id="g4161">
      <g
         id="g4298"
         transform="matrix(5.2091866,0,0,5.2091866,-1250.5701,-2126.801)">
        <g
           id="g4327"
           transform="matrix(0.72738446,0,0,0.72738446,93.124747,128.94667)">
          <g
             id="g4141"
             transform="matrix(0.89035914,0,0,1,35.92129,0)">
            <path
               sodipodi:nodetypes="sccccccccccccccccs"
               inkscape:connector-curvature="0"
               transform="matrix(0.26391621,0,0,0.26391621,328.01687,521.51132)"
               id="path4151"
               d="M 25.634766,0.04296875 C 24.780447,0.03755899 24.041443,0.11937729 23.457031,0.3359375 19.435944,3.1381147 15.413665,5.6285319 11.392578,7.5390625 10.384304,8.6301285 8.8998795,9.5535706 10.890625,11.058594 15.738338,14.365098 19.71578,9.8372761 24.126953,9.2148438 L 41.216797,19.435547 c 3.602099,-0.0341 3.800178,-1.060376 4.523437,-5.865235 L 45.617188,13.300781 43.873047,13.03125 c -0.516793,3.433287 -0.297703,4.16293 -3.232422,4.189453 L 24.144531,7.5078125 C 20.992546,7.9525749 16.096715,12.884166 12.632812,10.521484 11.210316,9.4460673 12.271694,8.7855008 12.992188,8.0058594 15.86541,6.6407291 21.505646,3.6116772 24.378906,1.609375 26.606015,0.78407518 34.743839,3.3364597 39,2.7128906 l 1.667969,-0.3300781 -0.625,-1.3769531 C 35.203334,1.7149291 29.336814,0.06641106 25.634766,0.04296875 Z"
               style="fill:#808080;fill-opacity:1;fill-rule:evenodd;stroke:none;stroke-width:1px;stroke-linecap:butt;stroke-linejoin:miter;stroke-opacity:1" />
            <path
               style="fill:#808080;fill-opacity:1;fill-rule:evenodd;stroke:none;stroke-width:1px;stroke-linecap:butt;stroke-linejoin:miter;stroke-opacity:1"
               d="m 339.30338,526.94827 c 0.20527,-0.009 0.29818,-0.0197 0.36289,-0.13222 0.57084,0.92555 -0.11287,1.76753 -0.70329,1.84533 0.1888,0.64686 -0.15016,1.1227 -0.86438,1.25138 0.0232,0.64464 -0.88011,1.03547 -1.81295,0.70749 0.082,0.48926 -0.31013,0.79984 -1.05901,0.70749 l -1.42132,-0.85602 0.14474,-0.30192 1.28291,0.75469 c 0.6323,0.25828 0.9098,-0.41325 0.52743,-0.72052 l -1.95096,-1.35245 0.29095,-0.30314 2.59196,1.69165 c 0.48355,0.14157 1.00356,-0.37707 0.74297,-0.62163 l -2.56465,-1.69546 0.28739,-0.3404 2.54474,1.74001 c 0.42107,0.30548 1.36815,-0.15065 0.54899,-0.7417 l -2.67363,-1.89601 0.15473,-0.42438 2.77911,1.94561 c 0.67619,0.33469 1.21329,-0.72802 0.79138,-1.2578 z"
               id="path4153"
               inkscape:connector-curvature="0"
               sodipodi:nodetypes="cccccccccccccccccccccc" />
            <path
               style="fill:#808080;fill-opacity:1;fill-rule:evenodd;stroke:none;stroke-width:1px;stroke-linecap:butt;stroke-linejoin:miter;stroke-opacity:1"
               d="m 327.90346,525.34002 0.79632,1.15421 -0.22857,0.37245 -0.84437,-1.29701 z"
               id="path4157"
               inkscape:connector-curvature="0"
               sodipodi:nodetypes="ccccc" />
            <path
               style="fill:#808080;fill-opacity:1;fill-rule:evenodd;stroke:none;stroke-width:1px;stroke-linecap:butt;stroke-linejoin:miter;stroke-opacity:1"
               d="m 330.13934,521.51132 -0.13392,0.30935 3.00766,0.24613 c 0,0 0.22859,-0.12386 0.38512,-0.29817 z"
               id="path4159"
               inkscape:connector-curvature="0"
               sodipodi:nodetypes="ccccc" />
            <path
               sodipodi:nodetypes="scsccccccccsscscscccccssc"
               inkscape:connector-curvature="0"
               id="path4155-9-9"
               d="m 332.47157,527.93251 c -0.20063,-0.1518 -0.45838,-0.1869 -0.87419,0.0432 0.0333,-0.398 -0.11218,-0.62776 -0.38753,-0.78283 -0.27559,-0.1551 -0.5343,-0.20363 -0.94063,-0.0662 -0.0405,-0.50606 -0.55618,-0.60986 -0.94384,-0.53474 -0.38641,0.21857 -0.59951,0.50898 -0.8792,0.91045 1.00155,1.50396 2.6249,2.62462 4.78983,3.20467 l 0.44833,-0.85348 c 0.002,2e-5 0.003,4.8e-4 0.004,5e-5 0.001,-0.004 -3.6e-4,-0.008 4.9e-4,-0.0119 0.12722,-0.29134 -0.22416,-1.35948 -0.95096,-1.00814 0.009,-0.38909 -0.01,-0.70537 -0.26773,-0.90064 z m -1.42461,-0.50953 c 0.15787,0.11141 0.2525,0.21676 0.27572,0.86399 5.1e-4,0.0187 0.0634,0.0844 0.0954,0.0611 0.68113,-0.46239 1.2052,-0.11693 1.04923,0.7892 -0.005,0.0264 0.0786,0.13498 0.15186,0.0802 0.69753,-0.37871 0.81696,0.34886 0.70414,0.5604 l -0.22949,0.40361 c -1.69246,-0.42982 -3.13606,-1.43114 -4.18924,-2.85849 0.55301,-0.85484 1.21197,-0.45389 1.07096,0.13609 -0.0152,0.0569 0.0532,0.0689 0.0702,0.0704 0.62611,-0.39455 0.84374,-0.219 1.00161,-0.1076 z"
               style="fill:#808080;fill-opacity:1;fill-rule:evenodd;stroke:none;stroke-width:1px;stroke-linecap:butt;stroke-linejoin:miter;stroke-opacity:1" />
          </g>
        </g>
      </g>
    </g>
  </g>
</svg>
