<?xml version="1.0" encoding="UTF-8" standalone="no"?>
<!-- Created with Inkscape (http://www.inkscape.org/) -->

<svg
   xmlns:dc="http://purl.org/dc/elements/1.1/"
   xmlns:cc="http://creativecommons.org/ns#"
   xmlns:rdf="http://www.w3.org/1999/02/22-rdf-syntax-ns#"
   xmlns:svg="http://www.w3.org/2000/svg"
   xmlns="http://www.w3.org/2000/svg"
   xmlns:sodipodi="http://sodipodi.sourceforge.net/DTD/sodipodi-0.dtd"
   xmlns:inkscape="http://www.inkscape.org/namespaces/inkscape"
   width="13.325994mm"
   height="10.514671mm"
   viewBox="0 0 47.218091 37.256709"
   id="svg2"
   version="1.1"
   inkscape:version="0.91 r13725"
   sodipodi:docname="Handshake2.svg">
  <defs
     id="defs4" />
  <sodipodi:namedview
     id="base"
     pagecolor="#ffffff"
     bordercolor="#666666"
     borderopacity="1.0"
     inkscape:pageopacity="0.0"
     inkscape:pageshadow="2"
     inkscape:zoom="7.919596"
     inkscape:cx="31.592208"
     inkscape:cy="15.57162"
     inkscape:document-units="px"
     inkscape:current-layer="g4327"
     showgrid="false"
     inkscape:window-width="1366"
     inkscape:window-height="705"
     inkscape:window-x="1072"
     inkscape:window-y="1148"
     inkscape:window-maximized="1"
     fit-margin-top="0"
     fit-margin-left="0"
     fit-margin-right="0"
     fit-margin-bottom="0" />
  <metadata
     id="metadata7">
    <rdf:RDF>
      <cc:Work
         rdf:about="">
        <dc:format>image/svg+xml</dc:format>
        <dc:type
           rdf:resource="http://purl.org/dc/dcmitype/StillImage" />
        <dc:title></dc:title>
      </cc:Work>
    </rdf:RDF>
  </metadata>
  <g
     inkscape:label="Layer 1"
     inkscape:groupmode="layer"
     id="layer1"
     transform="translate(-475.93884,-520.9551)">
    <g
       id="g4161">
      <g
         id="g4298"
         transform="matrix(5.2091866,0,0,5.2091866,-1250.5701,-2126.801)">
        <g
           id="g4327"
           transform="matrix(0.72738446,0,0,0.72738446,93.124747,128.94667)">
          <path
             style="fill:#808080;fill-opacity:1;fill-rule:evenodd;stroke:none;stroke-width:1px;stroke-linecap:butt;stroke-linejoin:miter;stroke-opacity:1"
             d="M 25.634766,0.04296875 C 24.780447,0.03755899 24.041443,0.11937729 23.457031,0.3359375 19.435944,3.1381147 15.413665,5.6285319 11.392578,7.5390625 10.384304,8.6301285 8.8998795,9.5535706 10.890625,11.058594 15.738338,14.365098 19.71578,9.8372761 24.126953,9.2148438 L 41.216797,19.435547 c 4.107175,-0.0341 3.800178,-1.060376 4.523437,-5.865235 L 45.617188,13.300781 43.873047,13.03125 c -0.516793,3.433287 -0.297703,4.16293 -3.232422,4.189453 L 24.144531,7.5078125 C 20.992546,7.9525749 16.096715,12.884166 12.632812,10.521484 11.210316,9.4460673 12.271694,8.7855008 12.992188,8.0058594 15.86541,6.6407291 21.505646,3.6116772 24.378906,1.609375 26.606015,0.78407518 34.743839,3.3364597 39,2.7128906 l 1.667969,-0.3300781 -0.625,-1.3769531 C 35.203334,1.7149291 29.336814,0.06641106 25.634766,0.04296875 Z"
             id="path4151"
             transform="matrix(0.26391621,0,0,0.26391621,328.01687,521.51132)"
             inkscape:connector-curvature="0" />
          <path
             sodipodi:nodetypes="cccccccccccccccccccccc"
             inkscape:connector-curvature="0"
             id="path4153"
             d="m 339.30338,526.94827 c 0.20527,-0.009 0.29818,-0.0197 0.36289,-0.13222 0.57084,0.92555 -0.11287,1.76753 -0.70329,1.84533 0.1888,0.64686 -0.15016,1.1227 -0.86438,1.25138 0.0232,0.64464 -0.88011,1.03547 -1.81295,0.70749 0.082,0.48926 -0.31013,0.79984 -1.05901,0.70749 l -1.42132,-0.85602 0.14474,-0.30192 1.28291,0.75469 c 0.6323,0.25828 0.9098,-0.41325 0.52743,-0.72052 l -1.95096,-1.35245 0.29095,-0.30314 2.59196,1.69165 c 0.48355,0.14157 1.00356,-0.37707 0.74297,-0.62163 l -2.56465,-1.69546 0.28739,-0.3404 2.54474,1.74001 c 0.42107,0.30548 1.36815,-0.15065 0.54899,-0.7417 l -2.67363,-1.89601 0.15473,-0.42438 2.77911,1.94561 c 0.67619,0.33469 1.21329,-0.72802 0.79138,-1.2578 z"
             style="fill:#808080;fill-opacity:1;fill-rule:evenodd;stroke:none;stroke-width:1px;stroke-linecap:butt;stroke-linejoin:miter;stroke-opacity:1" />
          <path
             sodipodi:nodetypes="ccccc"
             inkscape:connector-curvature="0"
             id="path4157"
             d="m 327.90346,525.34002 0.79632,1.15421 -0.22857,0.37245 -0.84437,-1.29701 z"
             style="fill:#808080;fill-opacity:1;fill-rule:evenodd;stroke:none;stroke-width:1px;stroke-linecap:butt;stroke-linejoin:miter;stroke-opacity:1" />
          <path
             sodipodi:nodetypes="ccccc"
             inkscape:connector-curvature="0"
             id="path4159"
             d="m 330.13934,521.51132 -0.13392,0.30935 3.00766,0.24613 c 0,0 0.22859,-0.12386 0.38512,-0.29817 z"
             style="fill:#808080;fill-opacity:1;fill-rule:evenodd;stroke:none;stroke-width:1px;stroke-linecap:butt;stroke-linejoin:miter;stroke-opacity:1" />
          <path
             sodipodi:nodetypes="scccccccccccccccsccccccccccc"
             inkscape:connector-curvature="0"
             id="path4155-9"
             d="m 329.55796,525.96859 c -0.1238,0.002 -0.23292,0.0391 -0.29948,0.11701 -0.23266,0.30896 -0.01,0.28098 0.23969,0.34278 0.0112,-0.0107 0.0251,-0.0174 0.0387,-0.0242 l 0.0134,-0.0258 0.017,0.0134 c 0.22904,-0.11135 0.41845,0.0844 0.49742,0.80567 1.0618,-0.17589 1.19054,-0.34358 1.0969,1.16958 0.9313,-0.55203 1.37463,-0.54118 1.05051,0.82113 l 0.62165,-0.14227 c 0.003,-0.002 0.007,-0.006 0.0108,-0.008 0.16827,-0.0176 0.44318,0.0332 0.50721,0.35052 0.13286,0.2934 0.17484,0.5561 0.36701,0.17628 0.0814,-0.30213 -0.30394,-1.02754 -1.15927,-0.76958 0.39285,-0.73023 0.11429,-1.56216 -0.97938,-1.07783 0.36433,-0.7517 -0.46647,-1.21501 -1.25979,-0.9603 0.11307,-0.48156 -0.39096,-0.79365 -0.76237,-0.78814 z m -1.00566,1.46442 c -0.205,0.6873 0.62372,0.89772 1.04793,0.60155 -0.17927,0.8003 0.60626,1.20943 1.11494,0.85824 -0.0788,0.62906 0.66515,1.24525 1.21082,0.91082 0.0102,0.77253 0.88454,1.20962 1.25567,0.82268 0.38947,-0.56132 -0.12385,-0.26162 -0.37371,-0.2665 -0.47825,0.24963 -0.47583,-0.62087 -0.67526,-0.99071 -0.8277,0.13403 -0.90216,0.14839 -1.06494,-0.88041 -0.99018,0.23592 -1.10754,0.23702 -1.22937,-0.88196 -0.43918,0.0179 -0.95439,0.45447 -0.90206,-0.20257 -0.19575,-0.32124 -0.26422,-0.21958 -0.38402,0.0289 z"
             style="fill:#808080;fill-opacity:1;fill-rule:evenodd;stroke:none;stroke-width:1px;stroke-linecap:butt;stroke-linejoin:miter;stroke-opacity:1" />
        </g>
      </g>
    </g>
  </g>
</svg>
