<?xml version="1.0" encoding="UTF-8" standalone="no"?>
<svg width="32px" height="40px" viewBox="0 0 32 40" version="1.1" xmlns="http://www.w3.org/2000/svg" xmlns:xlink="http://www.w3.org/1999/xlink" xmlns:sketch="http://www.bohemiancoding.com/sketch/ns">
    <!-- Generator: Sketch 3.5.1 (25234) - http://www.bohemiancoding.com/sketch -->
    <title>Lock</title>
    <desc>Created with Sketch.</desc>
    <defs></defs>
    <g id="Page-1" stroke="none" stroke-width="1" fill="none" fill-rule="evenodd" sketch:type="MSPage">
        <g id="Not-Joined" sketch:type="MSArtboardGroup" transform="translate(-781.000000, -207.000000)" fill="#808080">
            <g id="Showcase" sketch:type="MSLayerGroup" transform="translate(0.000000, 160.000000)">
                <g id="Key-Stats" transform="translate(614.000000, 47.000000)" sketch:type="MSShapeGroup">
                    <path d="M171.48617,13.417176 L171.501121,13.417176 C171.859945,13.417176 172.152808,13.1313487 172.160723,12.7716459 C172.28121,7.36555121 176.930082,1.3192032 182.969394,1.3192032 C186.463524,1.3192032 189.807264,3.35341454 191.910074,6.76047667 C192.100919,7.07004969 192.508113,7.16679126 192.817686,6.97594653 C193.128139,6.78422233 193.224001,6.37702827 193.033156,6.06745526 C190.687613,2.26815004 186.925245,0 182.969394,0 C175.98993,0 170.976958,6.71562376 170.84152,12.7426235 C170.834484,13.1067235 171.12207,13.4083813 171.48617,13.417176 L171.48617,13.417176 Z M194.43415,15.0125324 L171.417572,15.0178092 C168.899653,15.3388154 167,17.4873576 167,20.013192 L167,34.9448133 C167,37.7327294 169.266391,40 172.055187,40 L193.88712,40 C196.673277,40 198.940548,37.7327294 198.940548,34.9448133 L198.940548,20.013192 C198.940548,17.4864782 197.039136,15.3379359 194.43415,15.0125324 L194.43415,15.0125324 Z M197.621345,34.9448133 C197.621345,37.0054087 195.945957,38.6807968 193.88712,38.6807968 L172.055187,38.6807968 C169.993712,38.6807968 168.319203,37.0054087 168.319203,34.9448133 L168.319203,20.013192 C168.319203,18.1495976 169.722835,16.5639154 171.501121,16.3317356 L194.3506,16.3264588 C196.214195,16.5639154 197.621345,18.1487182 197.621345,20.013192 L197.621345,34.9448133 L197.621345,34.9448133 Z M182.969394,21.718482 C181.029286,21.718482 179.451519,23.2988875 179.451519,25.2416341 C179.451519,26.5423684 180.152456,27.7059056 181.270261,28.3188954 L181.270261,31.8842619 C181.270261,32.8217756 182.031881,33.5851546 182.969394,33.5851546 C183.906908,33.5851546 184.671167,32.8217756 184.671167,31.8842619 L184.671167,28.3188954 C185.789851,27.7050262 186.492547,26.5414889 186.492547,25.2416341 C186.492547,23.2988875 184.912141,21.718482 182.969394,21.718482 L182.969394,21.718482 Z M183.77147,27.286399 C183.519062,27.385779 183.351963,27.6293918 183.351963,27.9011477 L183.351963,31.8842619 C183.351963,32.0944549 183.179588,32.2659514 182.969394,32.2659514 C182.760081,32.2659514 182.589464,32.0944549 182.589464,31.8842619 L182.589464,27.9011477 C182.589464,27.6293918 182.423244,27.385779 182.170837,27.286399 C181.32039,26.9530803 180.770722,26.1510048 180.770722,25.2416341 C180.770722,24.0262082 181.756607,23.0376852 182.969394,23.0376852 C184.183941,23.0376852 185.173343,24.0262082 185.173343,25.2416341 C185.173343,26.1501253 184.622796,26.9530803 183.77147,27.286399 L183.77147,27.286399 Z" id="Lock"></path>
                </g>
            </g>
        </g>
    </g>
</svg>