<?xml version="1.0" encoding="UTF-8" standalone="no"?>
<svg width="40px" height="40px" viewBox="0 0 40 40" version="1.1" xmlns="http://www.w3.org/2000/svg" xmlns:xlink="http://www.w3.org/1999/xlink" xmlns:sketch="http://www.bohemiancoding.com/sketch/ns">
    <!-- Generator: Sketch 3.5.1 (25234) - http://www.bohemiancoding.com/sketch -->
    <title>Thumbs Up</title>
    <desc>Created with Sketch.</desc>
    <defs></defs>
    <g id="Page-1" stroke="none" stroke-width="1" fill="none" fill-rule="evenodd" sketch:type="MSPage">
        <g id="Dropdown" sketch:type="MSArtboardGroup" transform="translate(-112.000000, -1344.000000)" fill="#808080">
            <g id="Voting" sketch:type="MSLayerGroup" transform="translate(0.000000, 1052.000000)">
                <g id="-01:-Voting-Topic" transform="translate(42.000000, 129.000000)" sketch:type="MSShapeGroup">
                    <path d="M81.4194072,179.190031 L73.5955929,179.193623 C73.5955929,179.193623 73.4851454,179.181949 73.30376,179.181949 C72.7218902,179.181949 71.6254966,179.306764 70.8326092,180.14814 C70.2202092,180.799152 69.9418455,181.715956 70.0100895,182.872512 C70.2013523,186.130265 71.1010954,198.890095 71.107381,198.971809 C71.107381,200.364525 71.9487576,203 75.1337765,203 L81.7031586,202.999102 C81.7157298,203 81.7453621,203 81.7561375,203 C82.4556384,203 83.6409287,202.532169 83.6409287,200.776683 L83.6409287,182.06436 C83.7028871,181.743793 83.8384771,180.724623 83.2404443,179.963163 C82.9620806,179.61027 82.4215164,179.190031 81.4194072,179.190031 L81.4194072,179.190031 Z M82.3128647,181.834485 C82.3002935,181.885668 82.2940079,181.939545 82.2940079,181.992524 L82.2940079,200.776683 C82.2940079,201.538142 81.9563797,201.653079 81.7561375,201.653079 L81.7561375,202.32654 L81.7381785,201.653079 L75.1337765,201.653079 C72.5530761,201.653079 72.4569958,199.242989 72.453404,198.924217 C72.4444245,198.795811 71.5464772,186.044062 71.3561124,182.793493 C71.3103171,182.021258 71.464764,181.442082 71.8131676,181.072128 C72.2747125,180.580951 73.0092333,180.52887 73.30376,180.52887 C73.3881671,180.52887 73.4429418,180.53336 73.5237571,180.536952 L81.4194072,180.536952 C81.7893615,180.536952 82.0434806,180.623155 82.1799686,180.793765 C82.4152307,181.090087 82.3532724,181.660284 82.3128647,181.834485 L82.3128647,181.834485 Z M108.176439,183.344833 C108.083951,183.303527 107.989666,183.266711 107.89628,183.230793 C108.582311,182.800677 109.263853,182.082319 109.263853,180.84405 C109.263853,179.998183 109.007041,179.327417 108.4997,178.851505 C107.719384,178.112494 106.626582,178.055923 106.310505,178.055923 L100.339156,178.055923 C100.241279,178.055923 100.028466,177.949068 99.9988337,177.938292 C99.807571,176.885 99.5884718,175.691628 100.617519,173.6479 C101.126655,172.635914 101.105105,170.5859 100.566336,168.550254 C100.06169,166.624157 99.1538654,164.913567 98.0044929,163.733665 C97.9820442,163.70942 97.9569017,163.688767 97.9326571,163.668115 C97.6776401,163.472362 96.759938,162.848289 95.7030541,163.034164 C95.0125327,163.155387 94.4333567,163.579218 93.9780974,164.293086 C93.9098535,164.401738 93.8730376,164.526552 93.8730376,164.654959 L93.865854,169.472446 C93.8020998,170.090233 93.5740212,171.346462 93.1151701,172.144737 C92.7694604,172.749055 91.1369924,175.399795 89.61138,177.74254 C88.1791541,179.941613 87.6466714,180.620461 87.4536127,180.832376 C86.8277435,181.528285 85.5436789,181.599223 84.8334027,181.572285 C84.4814074,181.570489 84.1500648,181.852444 84.1383915,182.224195 C84.1267182,182.595945 84.419449,182.906634 84.7911992,182.919206 C85.9414696,182.953328 87.5137752,182.778228 88.453926,181.735711 C88.8391453,181.31188 89.6077882,180.215487 90.7400997,178.477061 C92.1768153,176.269008 93.8811191,173.518596 94.2851954,172.814605 C94.972125,171.616744 95.1723673,169.933991 95.1903262,169.696932 C95.2163667,169.589179 95.2199585,169.492201 95.2199585,169.418569 L95.2199585,164.863282 C95.4372617,164.57145 95.6734218,164.407125 95.9356224,164.360432 C96.4214119,164.276025 96.92965,164.605572 97.0760154,164.709733 C98.0475944,165.725312 98.8225228,167.207823 99.2643129,168.89327 C99.7635716,170.785245 99.7150824,172.443753 99.415168,173.042684 C98.1831844,175.48959 98.4678337,177.044835 98.6743615,178.180738 C98.8189311,178.96734 99.7510003,179.402844 100.339156,179.402844 L106.310505,179.402844 C106.612215,179.402844 107.21833,179.492639 107.576611,179.832063 C107.805587,180.046672 107.916933,180.378015 107.916933,180.84405 C107.916933,181.802159 107.203962,182.152359 106.343729,182.481905 L106.175813,182.548353 C105.991734,182.621985 105.428721,182.846472 105.467332,183.413077 C105.50774,183.983273 106.036631,184.113476 106.547563,184.23829 C106.86813,184.31731 107.266819,184.415186 107.627794,184.57502 C108.094726,184.784242 108.713412,185.763005 108.61374,186.686094 C108.487129,187.827385 107.320696,188.299706 106.362586,188.496356 C105.760063,188.622069 105.539168,189.014472 105.531087,189.338631 C105.526597,189.597239 105.636147,190.061478 106.446095,190.268006 C106.597848,190.312005 107.071964,190.793305 107.099801,191.428154 C107.136616,192.290183 106.288056,192.803809 105.563413,193.084866 C105.519413,193.102825 105.479006,193.115397 105.440394,193.12707 C105.223091,193.19711 104.76873,193.342577 104.641221,193.937018 C104.501141,194.553908 105.042603,194.860108 105.247335,194.975045 C105.572392,195.159125 105.91002,195.349489 105.91002,196.244743 C105.91002,196.537474 105.831001,196.823021 105.672064,197.094201 C105.511332,197.369871 105.10097,197.674275 104.878279,197.838599 C104.472407,198.141207 103.559195,198.520141 103.102139,198.616222 L103.009651,198.635976 C100.060792,199.236703 96.3801063,199.983795 90.8729959,199.906572 C87.9851975,199.862572 86.3733822,199.022992 85.5993517,198.620711 C85.1458883,198.384551 84.8181376,198.215737 84.4401018,198.409694 C84.1195346,198.571324 84.0171686,198.942176 84.1617381,199.270825 C84.3027158,199.586005 84.6897311,199.731472 85.0174819,199.624616 C84.8603411,199.694656 84.7157716,199.678493 84.6600989,199.658738 C84.7337305,199.684779 84.8369945,199.742247 84.9770742,199.814981 C85.8435933,200.265751 87.6475693,201.204106 90.8523431,201.253493 C91.1280129,201.257084 91.3964991,201.25888 91.6622915,201.25888 C96.8784671,201.25888 100.413685,200.539625 103.279035,199.955061 L103.376013,199.935306 C103.997393,199.803308 105.099174,199.353436 105.681044,198.919728 C106.094998,198.614426 106.558338,198.248063 106.836702,197.772151 C107.115964,197.292647 107.257839,196.778124 107.257839,196.244743 C107.257839,195.122309 106.851967,194.519786 106.450585,194.169587 C108.273418,193.313843 108.487129,192.036064 108.442232,191.322196 C108.400926,190.655919 108.089338,189.984255 107.656528,189.52271 C109.447035,188.837576 109.86907,187.586735 109.951681,186.833358 C110.120495,185.29697 109.171365,183.789317 108.176439,183.344833 L108.176439,183.344833 Z" id="Thumbs-Up"></path>
                </g>
            </g>
        </g>
    </g>
</svg>